<svg width="24" height="24" viewBox="0 0 24 24" fill="none" xmlns="http://www.w3.org/2000/svg">
<path d="M15.8058 10.5L15.4648 9.79877C14.9817 8.80544 13.7848 8.3918 12.7915 8.87488L3.79859 13.2484C2.80525 13.7314 2.39161 14.9283 2.87469 15.9216L4.95209 20.1933C5.43518 21.1866 6.63204 21.6002 7.62537 21.1172L16.6183 16.7437C17.6116 16.2606 18.0253 15.0637 17.5422 14.0704L17.1114 13.1845" stroke="white" stroke-width="1.5" stroke-linecap="round"/>
<path d="M8.61494 13.5L8.95209 14.1933C9.43518 15.1866 10.632 15.6002 11.6254 15.1172L20.6183 10.7437C21.6116 10.2606 22.0253 9.06374 21.5422 8.07041L19.4648 3.79877C18.9817 2.80544 17.7848 2.3918 16.7915 2.87488L7.79859 7.24835C6.80525 7.73143 6.39161 8.9283 6.87469 9.92163L7.30747 10.8115" stroke="white" stroke-width="1.5" stroke-linecap="round"/>
</svg>
