<svg width="82" height="30" viewBox="0 0 82 30" fill="none" xmlns="http://www.w3.org/2000/svg">
<path d="M0 23.2884H5.73414L5.3591 27.7725H10.8524L11.2294 23.2884H13.4047L12.8441 29.9695H18.3374L18.9 23.2884H24.8196L25.3092 17.7129H0.481628L0 23.2884Z" fill="white"/>
<path d="M41.1935 17.7616H46.296L47.4606 4.4375H42.3601L42.0561 7.82009H39.9875L39.5059 13.3976H41.5784L41.1935 17.7616Z" fill="white"/>
<path d="M48.373 17.7612H53.6256L55.1869 0.0332031H49.9403L48.373 17.7612Z" fill="white"/>
<path d="M76.1579 9.99154L76.9988 0H71.7206L69.3125 27.7736H74.565L75.6724 15.5651H80.6367L81.1124 9.99154H76.1579Z" fill="white"/>
<path d="M38.4727 25.5756H47.7262L47.3591 29.9996H52.6116L53.4545 20H38.9523L38.4727 25.5756Z" fill="white"/>
<path d="M56.4141 10.0111H63.4075L63.2082 12.2081H58.2833L57.8076 17.7836H62.7226L62.0377 25.5822H67.3001L69.1456 4.43555H56.8898L56.4141 10.0111Z" fill="white"/>
<path d="M28.2719 7.72595H32.5987L32.4131 9.89889H28.0765L26.9297 23.281H36.503L36.9847 17.7055H31.7361L31.9315 15.4745H37.1801L38.3269 2.15039H28.7496L28.2719 7.72595Z" fill="white"/>
<path d="M13.5944 15.9619C17.3132 15.9619 20.3391 12.8918 20.3391 9.11867C20.3391 5.34555 17.3132 2.27539 13.5944 2.27539C9.87558 2.27539 6.84961 5.34555 6.84961 9.11867C6.84961 12.8918 9.87558 15.9619 13.5944 15.9619ZM13.5944 7.89701C14.2596 7.89701 14.7985 8.44575 14.7985 9.11867C14.7985 9.79158 14.2576 10.3403 13.5944 10.3403C12.9312 10.3403 12.3903 9.79158 12.3903 9.11867C12.3903 8.44575 12.9312 7.89701 13.5944 7.89701Z" fill="white"/>
</svg>
